<?xml version="1.0" encoding="utf-8"?>
<!-- Generator: Adobe Illustrator 27.5.0, SVG Export Plug-In . SVG Version: 6.00 Build 0)  -->
<svg version="1.1" id="Layer_1" xmlns="http://www.w3.org/2000/svg" xmlns:xlink="http://www.w3.org/1999/xlink" x="0px" y="0px"
	 viewBox="0 0 1113.8 977.1" style="enable-background:new 0 0 1113.8 977.1;" xml:space="preserve">
<style type="text/css">
	.st0{display:none;}
	.st1{stroke:#000000;stroke-miterlimit:10;}
</style>
<path class="st0" d="M-102.5-38h1280v1127.5h-1280V-38z"/>
<path class="st1" d="M560.6,13.3h11.9l13.8,1.2l12.5,2.5l16.9,5.6l15.6,8.1l7.5,5l8.8,6.9l6.2,5.6L665,59.5l8.1,10.6l6.9,10
	l7.5,12.5l10.6,18.1l5,8.1l5.6,10l10,18.1l9.4,16.2l10.6,17.5l8.8,15.6l8.1,14.4L765,227l5,8.1l5.6,9.4l15.6,28.1l9.4,15.6
	l10.6,18.1l10,18.1l8.1,13.8l12.5,21.2l7.5,13.1l8.8,15.6l10,16.9l8.1,13.8l8.1,14.4l8.8,15.6l10.6,17.5l12.5,21.9l8.8,15.6l26.2,45
	l7.5,13.1l9.4,16.2l5.6,9.4l10.6,18.1l8.1,15l8.8,15l10,16.9l9.4,16.2l10,17.5l8.1,14.4l18.1,30.6l9.4,16.9l9.4,16.2l8.1,13.8
	l6.9,12.5l6.2,15l3.8,11.9l1.9,10.6l0.6,6.2v16.9l-1.9,16.2l-3.8,14.4l-6.2,15l-6.9,13.1l-8.1,11.2l-6.2,6.9l-10,10l-8.8,6.9
	l-12.5,7.5l-11.2,5l-15,5l-12.5,2.5l-11.2,1.2h-34.4l-13.8-1.9l-12.5-3.8l-14.4-6.9l-8.8-6.2l-6.9-5.6l-8.1-8.1l-8.1-10.6l-8.1-13.1
	l-10.6-17.5l-9.4-16.2l-8.1-14.4l-8.8-15l-5.6-9.4l-7.5-13.1l-9.4-16.2l-11.9-20l-10-16.9l-9.4-16.9l-7.5-13.1l-8.8-14.4l-5.6-9.4
	l-7.5-13.1L735,672l-8.1-13.1l-9.4-16.2l-10-17.5l-10-16.9l-8.1-13.8l-9.4-16.2l-10-17.5l-11.9-20l-9.4-16.2l-8.8-15l-9.4-16.2
	L620,475.8l-7.5-13.1l-9.4-16.9L595,432l-6.9-11.2l-6.9-12.5L580,407l-3.8,0.6l-15,6.2l-13.1,3.8v2.5l3.1,9.4l6.2,22.5l7.5,25.6
	l9.4,35.6l10,37.5l7.5,26.2l7.5,26.9l6.2,24.4l8.1,30l12.5,45.6l6.2,21.9l13.1,48.8l6.2,23.1l5,20l2.5,14.4l0.6,5v18.8l-1.9,13.1
	l-3.8,13.1l-5,13.1l-5,10l-5.6,9.4l-5.6,7.5l-7.5,8.1l-7.5,7.5l-8.8,6.9l-10,6.2l-10,5l-13.1,5l-11.9,3.1l-17.5,2.5h-28.1l-13.8-1.9
	l-14.4-4.4l-14.4-6.2l-10.6-6.2l-10-8.1l-7.5-6.9l-5.6-6.2l-6.2-8.1l-8.1-12.5l-8.1-13.1l-7.5-11.9l-10.6-18.1l-9.4-15.6l-9.4-15
	l-8.1-13.1l-9.4-16.2l-10-16.2l-7.5-11.9l-8.1-13.1l-8.1-13.8l-7.5-12.5l-9.4-15l-8.8-14.4l-10.6-18.1l-7.5-12.5l-7.5-11.9l-5-8.8
	l-3.8-6.2l-4.4-0.6l-5,3.1l-6.9,6.2l-5.6,4.4l-6.9,6.2l-0.6,3.1l3.1,37.5l8.1,86.9l3.1,36.9l0.6,10v13.1l-1.2,13.1l-2.5,11.9
	l-3.1,9.4l-6.9,14.4l-9.4,15l-5,6.2l-6.9,7.5l-6.2,5.6l-9.4,6.9l-13.1,7.5l-10,5l-13.8,5.6l-15.6,3.8l-8.8,1.2H130l-15.6-1.9
	l-12.5-3.1l-12.5-4.4l-10.6-5l-10.6-6.2l-8.8-6.9l-8.1-7.5l-7.5-7.5l-5.6-6.9l-5.6-7.5l-5.6-9.4l-5-9.4l-4.4-11.9l-3.1-12.5
	l-1.2-10.6v-19.4l1.9-13.1l3.1-12.5l5-13.1l7.5-14.4l7.5-11.2l8.1-10l5.6-6.9l11.2-11.2l7.5-5.6l10.6-5.6l14.4-4.4l13.8-3.1
	l13.1-1.9h25.6l15,1.9l9.4,2.5l17.5,5l8.1,1.2l5.6-0.6l8.8-4.4l3.1-3.8l1.2-5v-13.1l-5-75l-5.6-78.1l-1.9-31.9l-0.6-16.2v-18.8
	l1.2-11.2l3.1-13.1l3.8-11.2l8.1-16.9l7.5-11.2l6.9-8.8l9.4-10l7.5-6.9l8.1-5.6l10-5.6l10.6-5l11.2-3.8l15-3.1l10.6-1.2h16.9l15,1.9
	l13.1,3.1l10.6,3.8l10.6,5l10.6,6.2l8.8,6.9l6.2,5.6l6.9,6.9l5.6,6.9l6.2,8.1l7.5,11.9l6.2,10.6l10.6,17.5l9.4,15l10.6,17.5l10,16.9
	l9.4,15l10.6,17.5l8.1,13.1l7.5,12.5l5.6,10h4.4l5.6-3.8l16.2-6.2l6.2-1.9h1.9l-0.6-7.5l-5-18.8l-15-58.1l-9.4-35l-6.2-22.5
	L510,390.8L498.8,347l-10.6-37.5l-11.2-41.9l-9.4-36.2l-6.9-26.2l-7.5-26.9l-5-17.5l-4.4-17.5l-1.2-9.4v-5.6l1.9-13.1l3.8-13.8
	l5-12.5l5-10l5.6-10l7.5-10.6l7.5-8.8l6.2-6.2l8.8-6.9l11.2-7.5l14.4-6.9l16.2-5l17.5-3.1L560.6,13.3z"/>
</svg>
